<svg xmlns="http://www.w3.org/2000/svg" viewBox="0 0 700 500" font-family="sans-serif" font-size="15">
  <!-- straight edges -->
  <g stroke="#555" stroke-width="2">
    <!-- row chains -->
    <line x1="170" y1="60" x2="350" y2="60"/>
    <line x1="350" y1="60" x2="530" y2="60"/>
    <line x1="80" y1="190" x2="260" y2="190"/>
    <line x1="260" y1="190" x2="440" y2="190"/>
    <line x1="440" y1="190" x2="620" y2="190"/>
    <line x1="80" y1="320" x2="260" y2="320"/>
    <line x1="260" y1="320" x2="440" y2="320"/>
    <line x1="440" y1="320" x2="620" y2="320"/>
    <!-- row 1 to row 2 -->
    <line x1="170" y1="60" x2="80" y2="190"/>
    <line x1="350" y1="60" x2="80" y2="190"/>
    <line x1="350" y1="60" x2="260" y2="190"/>
    <line x1="350" y1="60" x2="440" y2="190"/>
    <line x1="530" y1="60" x2="440" y2="190"/>
    <line x1="530" y1="60" x2="620" y2="190"/>
    <!-- row 2 to row 3 -->
    <line x1="80" y1="190" x2="80" y2="320"/>
    <line x1="260" y1="190" x2="80" y2="320"/>
    <line x1="260" y1="190" x2="260" y2="320"/>
    <line x1="260" y1="190" x2="440" y2="320"/>
    <line x1="440" y1="190" x2="440" y2="320"/>
    <line x1="620" y1="190" x2="440" y2="320"/>
    <line x1="620" y1="190" x2="620" y2="320"/>
    <!-- row 3 to LALE -->
    <line x1="80" y1="320" x2="350" y2="450"/>
    <line x1="260" y1="320" x2="350" y2="450"/>
    <line x1="620" y1="320" x2="350" y2="450"/>
  </g>

  <!-- curved edges: each skips over another island's node, so it's bowed
       out to the side rather than drawn straight through that node -->
  <g stroke="#555" stroke-width="2" fill="none">
    <path d="M 170 60 Q 20 190 80 320"/>   <!-- ALOA-HUNA, bows left of DUDA -->
    <path d="M 530 60 Q 680 190 620 320"/> <!-- COCO-KAHU, bows right of GOLA -->
    <path d="M 260 320 Q 440 240 620 320"/> <!-- IFFI-KAHU, bows above JOJO -->
  </g>

  <!-- islands -->
  <g>
    <circle cx="170" cy="60" r="26" fill="#fff" stroke="#333" stroke-width="2"/>
    <text x="170" y="65" text-anchor="middle">ALOA</text>
    <circle cx="350" cy="60" r="26" fill="#fff" stroke="#333" stroke-width="2"/>
    <text x="350" y="65" text-anchor="middle">BARI</text>
    <circle cx="530" cy="60" r="26" fill="#fff" stroke="#333" stroke-width="2"/>
    <text x="530" y="65" text-anchor="middle">COCO</text>

    <circle cx="80" cy="190" r="26" fill="#fff" stroke="#333" stroke-width="2"/>
    <text x="80" y="195" text-anchor="middle">DUDA</text>
    <circle cx="260" cy="190" r="26" fill="#fff" stroke="#333" stroke-width="2"/>
    <text x="260" y="195" text-anchor="middle">ELAI</text>
    <circle cx="440" cy="190" r="26" fill="#fff" stroke="#333" stroke-width="2"/>
    <text x="440" y="195" text-anchor="middle">FAAA</text>
    <circle cx="620" cy="190" r="26" fill="#fff" stroke="#333" stroke-width="2"/>
    <text x="620" y="195" text-anchor="middle">GOLA</text>

    <circle cx="80" cy="320" r="26" fill="#fff" stroke="#333" stroke-width="2"/>
    <text x="80" y="325" text-anchor="middle">HUNA</text>
    <circle cx="260" cy="320" r="26" fill="#fff" stroke="#333" stroke-width="2"/>
    <text x="260" y="325" text-anchor="middle">IFFI</text>
    <circle cx="440" cy="320" r="26" fill="#fff" stroke="#333" stroke-width="2"/>
    <text x="440" y="325" text-anchor="middle">JOJO</text>
    <circle cx="620" cy="320" r="26" fill="#fff" stroke="#333" stroke-width="2"/>
    <text x="620" y="325" text-anchor="middle">KAHU</text>

    <circle cx="350" cy="450" r="26" fill="#fff" stroke="#333" stroke-width="2"/>
    <text x="350" y="455" text-anchor="middle">LALE</text>
  </g>
</svg>
