<svg xmlns="http://www.w3.org/2000/svg" viewBox="174 94 442 357" font-family="sans-serif" font-size="15">
  <g stroke="#555" stroke-width="2">
    <line x1="240" y1="170" x2="385" y2="160"/>  <!-- ALOA-BARI -->
    <line x1="385" y1="160" x2="550" y2="170"/>  <!-- BARI-COCO -->
    <line x1="240" y1="170" x2="305" y2="225"/>  <!-- ALOA-DUDA -->
    <line x1="240" y1="170" x2="245" y2="305"/>  <!-- ALOA-HUNA -->
    <line x1="385" y1="160" x2="305" y2="225"/>  <!-- BARI-DUDA -->
    <line x1="385" y1="160" x2="380" y2="240"/>  <!-- BARI-ELAI -->
    <line x1="385" y1="160" x2="455" y2="215"/>  <!-- BARI-FAAA -->
    <line x1="550" y1="170" x2="455" y2="215"/>  <!-- COCO-FAAA -->
    <line x1="550" y1="170" x2="510" y2="260"/>  <!-- COCO-GOLA -->
    <line x1="305" y1="225" x2="380" y2="240"/>  <!-- DUDA-ELAI -->
    <line x1="305" y1="225" x2="245" y2="305"/>  <!-- DUDA-HUNA -->
    <line x1="380" y1="240" x2="455" y2="215"/>  <!-- ELAI-FAAA -->
    <line x1="380" y1="240" x2="245" y2="305"/>  <!-- ELAI-HUNA -->
    <line x1="380" y1="240" x2="360" y2="315"/>  <!-- ELAI-IFFI -->
    <line x1="380" y1="240" x2="445" y2="290"/>  <!-- ELAI-JOJO -->
    <line x1="455" y1="215" x2="510" y2="260"/>  <!-- FAAA-GOLA -->
    <line x1="455" y1="215" x2="445" y2="290"/>  <!-- FAAA-JOJO -->
    <line x1="510" y1="260" x2="445" y2="290"/>  <!-- GOLA-JOJO -->
    <line x1="510" y1="260" x2="550" y2="350"/>  <!-- GOLA-KAHU -->
    <line x1="245" y1="305" x2="360" y2="315"/>  <!-- HUNA-IFFI -->
    <line x1="245" y1="305" x2="380" y2="385"/>  <!-- HUNA-LALE -->
    <line x1="360" y1="315" x2="445" y2="290"/>  <!-- IFFI-JOJO -->
    <line x1="360" y1="315" x2="550" y2="350"/>  <!-- IFFI-KAHU -->
    <line x1="360" y1="315" x2="380" y2="385"/>  <!-- IFFI-LALE -->
    <line x1="445" y1="290" x2="550" y2="350"/>  <!-- JOJO-KAHU -->
    <line x1="550" y1="350" x2="380" y2="385"/>  <!-- KAHU-LALE -->
    <line x1="550" y1="170" x2="550" y2="350"/>  <!-- COCO-KAHU -->
  </g>
  <g>
    <circle cx="240" cy="170" r="26" fill="#fff" stroke="#333" stroke-width="2"/>
    <text x="240" y="175" text-anchor="middle">ALOA</text>
    <circle cx="385" cy="160" r="26" fill="#fff" stroke="#333" stroke-width="2"/>
    <text x="385" y="165" text-anchor="middle">BARI</text>
    <circle cx="550" cy="170" r="26" fill="#fff" stroke="#333" stroke-width="2"/>
    <text x="550" y="175" text-anchor="middle">COCO</text>
    <circle cx="305" cy="225" r="26" fill="#fff" stroke="#333" stroke-width="2"/>
    <text x="305" y="230" text-anchor="middle">DUDA</text>
    <circle cx="455" cy="215" r="26" fill="#fff" stroke="#333" stroke-width="2"/>
    <text x="455" y="220" text-anchor="middle">FAAA</text>
    <circle cx="380" cy="240" r="26" fill="#fff" stroke="#333" stroke-width="2"/>
    <text x="380" y="245" text-anchor="middle">ELAI</text>
    <circle cx="510" cy="260" r="26" fill="#fff" stroke="#333" stroke-width="2"/>
    <text x="510" y="265" text-anchor="middle">GOLA</text>
    <circle cx="445" cy="290" r="26" fill="#fff" stroke="#333" stroke-width="2"/>
    <text x="445" y="295" text-anchor="middle">JOJO</text>
    <circle cx="245" cy="305" r="26" fill="#fff" stroke="#333" stroke-width="2"/>
    <text x="245" y="310" text-anchor="middle">HUNA</text>
    <circle cx="360" cy="315" r="26" fill="#fff" stroke="#333" stroke-width="2"/>
    <text x="360" y="320" text-anchor="middle">IFFI</text>
    <circle cx="550" cy="350" r="26" fill="#fff" stroke="#333" stroke-width="2"/>
    <text x="550" y="355" text-anchor="middle">KAHU</text>
    <circle cx="380" cy="385" r="26" fill="#fff" stroke="#333" stroke-width="2"/>
    <text x="380" y="390" text-anchor="middle">LALE</text>
  </g>
</svg>
